<svg xmlns="http://www.w3.org/2000/svg" xmlns:xlink="http://www.w3.org/1999/xlink" aria-hidden="true" role="img" class="iconify iconify--logos" width="35.93" height="32" preserveAspectRatio="xMidYMid meet" viewBox="0 0 256 228"><path fill="#00D8FF" d="M210.483 73.824a171.49 171.49 0 0 0-8.24-2.597c.465-1.9.893-3.777 1.273-5.621c6.238-30.281 2.16-54.676-11.769-62.708c-13.355-7.7-35.196.329-57.254 19.526a171.23 171.23 0 0 0-6.375 5.848a155.866 155.866 0 0 0-4.241-3.917C100.759 3.829 77.587-4.822 63.673 3.233C50.33 10.957 46.379 33.89 51.995 62.588a170.974 170.974 0 0 0 1.892 8.48c-3.28.932-6.445 1.924-9.474 2.98C17.309 83.498 0 98.307 0 113.668c0 15.865 18.582 31.778 46.812 41.427a145.52 145.52 0 0 0 6.921 2.165a167.467 167.467 0 0 0-2.01 9.138c-5.354 28.2-1.173 50.591 12.134 58.266c13.744 7.926 36.812-.22 59.273-19.855a145.567 145.567 0 0 0 5.342-4.923a168.064 168.064 0 0 0 6.92 6.314c21.758 18.722 43.246 26.282 56.54 18.586c13.731-7.949 18.194-32.003 12.4-61.268a145.016 145.016 0 0 0-1.535-6.842c1.62-.48 3.21-.974 4.76-1.488c29.348-9.723 48.443-25.443 48.443-41.52c0-15.417-17.868-30.326-45.517-39.844Zm-6.365 70.984c-1.596.54-3.233 1.055-4.911 1.555c-3.048-9.155-7.115-18.93-12.12-28.948c4.825-10.181 8.766-20.251 11.677-29.632c15.46 4.163 28.298 10.011 36.716 16.861c-6.524 8.98-18.787 18.479-31.362 20.164Zm-3.1-16.55a201.37 201.37 0 0 0-7.85-19.586c2.91-6.117 5.515-12.306 7.779-18.502c13.08 3.593 25.226 8.876 32.97 14.827c-5.25 8.13-17.337 17.005-32.899 23.261Zm-17.57-73.49c-2.208.738-4.46 1.517-6.742 2.34c-3.341-9.226-7.295-18.424-11.826-27.352c4.543-8.68 9.248-16.804 14.04-24.095c13.497 4.73 23.71 11.41 28.948 18.952c-5.684 8.296-17.124 21.14-24.42 30.155ZM128 90.907c3.908 6.364 7.612 13.062 11.088 20.039c-3.49 6.972-7.201 13.67-11.103 20.033c-3.889-.095-7.798-.145-11.703-.145c-3.908 0-7.82.05-11.71.146c-3.898-6.364-7.61-13.06-11.1-20.032c3.474-6.977 7.174-13.677 11.077-20.041c3.899.099 7.816.149 11.733.149c3.914 0 7.829-.05 11.718-.149Zm-25.818-5.94c-3.4 6.225-6.62 12.676-9.67 19.293c-3.175-8.036-5.93-16.164-8.23-24.21c5.94-1.469 12.062-2.699 18.35-3.651c-.15.852-.302 1.71-.45 2.568Zm-29.03 5.94c-5.52-5.52-10.46-11.19-14.75-16.93c5.68-7.11 13.46-13.95 22.64-20.31c1.05 1.19 2.1 2.4 3.15 3.63c-4.78 11.01-8.95 22.63-12.4 34.56c.47.38.97.7 1.46 1.05Zm-3.8 19.53c2.97 8.86 6.58 17.61 10.71 26.16c-8.65-2.9-16.72-6.42-23.9-10.44c4.03-5.04 8.59-9.99 13.61-15.16c-.14-.19-.27-.37-.42-.56Zm3.8 44.37c3.45 11.93 7.62 23.55 12.4 34.56c-1.05 1.23-2.1 2.44-3.15 3.63c-9.18-6.36-16.96-13.2-22.64-20.31c4.29-5.74 9.23-11.41 14.75-16.93c-.47.38-.97.7-1.36 1.05Zm25.82 27.95c5.52 5.52 10.46 11.19 14.75 16.93c-4.29 5.74-9.23 11.41-14.75 16.93c-5.52-5.52-10.46-11.19-14.75-16.93c4.29-5.74 9.23-11.41 14.75-16.93Zm25.03-3.59c3.4-6.225 6.62-12.676 9.67-19.293c3.175 8.036 5.93 16.164 8.23 24.21c-5.94 1.469-12.062 2.699-18.35 3.651c.15-.852.302-1.71.45-2.568Zm29.03-5.94c5.52 5.52 10.46 11.19 14.75 16.93c-5.68 7.11-13.46 13.95-22.64 20.31c-1.05-1.19-2.1-2.4-3.15-3.63c4.78-11.01 8.95-22.63 12.4-34.56c-.47-.38-.97-.7-1.46-1.05Zm3.8-19.53c-2.97-8.86-6.58-17.61-10.71-26.16c8.65 2.9 16.72 6.42 23.9 10.44c-4.03 5.04-8.59 9.99-13.61 15.16c.14.19.27.37.42.56Zm-3.8-44.37c-3.45-11.93-7.62-23.55-12.4-34.56c1.05-1.23 2.1-2.44 3.15-3.63c9.18 6.36 16.96 13.2 22.64 20.31c-4.29 5.74-9.23 11.41-14.75 16.93c.47-.38.97-.7 1.36-1.05Z"></path></svg>
